# xmcd
#
# Track frame offsets:
#  150
#  10835
#  23667
#  52500
#  63377
#  75220
#  86497
#  100002
#  111215
#  122385
#  133685
#  144697
#
# Disc length: 2277 seconds
#
# Revision: 0
# Processed by: cddbd v1.5.1PL2 Copyright (c) Steve Scherf et al.
# Submitted via: AltoMP3_Maker 3.0
#
DISCID=8408e30c
DTITLE=Freddie King - Freddy King Gives You A Bonanza Of Instrumentals
DYEAR=1900
DGENRE=
TTITLE0=Manhole
TTITLE1=Freeway 75
TTITLE2=Low Tide
TTITLE3=The Sad Night Owl
TTITLE4=Funnybone
TTITLE5=Nickleplated
TTITLE6=King-A-Ling
TTITLE7=Surf Monkey
TTITLE8=Freddy's Midnite Dream
TTITLE9=Fish Fare
TTITLE10=Cloud Sailin
TTITLE11=Remington Ride
EXTD=
EXTT0=
EXTT1=
EXTT2=
EXTT3=
EXTT4=
EXTT5=
EXTT6=
EXTT7=
EXTT8=
EXTT9=
EXTT10=
EXTT11=
PLAYORDER=
